<svg width="100" height="15" viewBox="0 0 100 15" fill="none" xmlns="http://www.w3.org/2000/svg">
<path d="M9.30398 4.74432C9.34659 4.27557 9.23296 3.90862 8.96307 3.64347C8.69318 3.37358 8.23864 3.23864 7.59943 3.23864C7.19224 3.23864 6.85133 3.28599 6.57671 3.38069C6.30682 3.47538 6.09612 3.60559 5.9446 3.77131C5.79782 3.93703 5.70549 4.12879 5.66762 4.3466C5.625 4.51705 5.62737 4.6733 5.67472 4.81535C5.7268 4.95266 5.82387 5.07813 5.96591 5.19177C6.11269 5.3054 6.30445 5.4072 6.5412 5.49716C6.78267 5.58713 7.06913 5.66762 7.40057 5.73864L8.53693 5.99432C9.31345 6.16478 9.96449 6.38968 10.4901 6.66904C11.0204 6.94366 11.437 7.27037 11.7401 7.64915C12.0431 8.02794 12.242 8.45171 12.3367 8.92046C12.4361 9.38921 12.4384 9.90057 12.3438 10.4546C12.1828 11.411 11.8111 12.2206 11.2287 12.8835C10.6463 13.5464 9.88637 14.0507 8.94887 14.3963C8.01137 14.742 6.92709 14.9148 5.69603 14.9148C4.43656 14.9148 3.36648 14.7278 2.4858 14.3537C1.60985 13.9749 0.975381 13.3973 0.582388 12.6207C0.194131 11.8395 0.0994339 10.8428 0.298298 9.63069H4.0483C3.99148 10.0758 4.03883 10.4498 4.19034 10.7528C4.34186 11.0559 4.5857 11.2855 4.92188 11.4418C5.25805 11.598 5.67709 11.6761 6.17898 11.6761C6.60512 11.6761 6.9697 11.6241 7.27273 11.5199C7.57576 11.4157 7.81487 11.2713 7.99006 11.0867C8.16525 10.902 8.27178 10.6913 8.30966 10.4546C8.34754 10.2367 8.30966 10.0426 8.19603 9.87216C8.08239 9.70171 7.87642 9.54783 7.57813 9.41052C7.27983 9.27321 6.87027 9.14773 6.34943 9.0341L4.95739 8.7216C3.72159 8.43751 2.78883 7.96876 2.15909 7.31535C1.52936 6.66194 1.30682 5.76705 1.49148 4.63069C1.64299 3.70266 2.02415 2.893 2.63495 2.20171C3.25048 1.50569 4.03173 0.965914 4.9787 0.582391C5.9304 0.194134 6.9839 5.00679e-06 8.13921 5.00679e-06C9.31345 5.00679e-06 10.2959 0.196501 11.0867 0.589494C11.8821 0.982486 12.4527 1.5341 12.7983 2.24432C13.1487 2.95455 13.2434 3.78788 13.0824 4.74432H9.30398ZM13.1357 14.7443L15.5504 0.198869H21.8288C22.9084 0.198869 23.8175 0.411937 24.5561 0.838074C25.2947 1.26421 25.8251 1.86317 26.147 2.63495C26.469 3.40673 26.5447 4.30872 26.3743 5.34091C26.2038 6.39205 25.825 7.29877 25.2379 8.06108C24.6555 8.81866 23.9122 9.40341 23.0078 9.81535C22.1082 10.2225 21.0997 10.4261 19.9822 10.4261H16.2322L16.7436 7.35796H19.6982C20.1716 7.35796 20.5883 7.27747 20.9482 7.11648C21.308 6.95076 21.5992 6.71876 21.8217 6.42046C22.0443 6.11743 22.1887 5.75758 22.255 5.34091C22.3213 4.92425 22.2905 4.56913 22.1626 4.27557C22.0395 3.97728 21.8265 3.75001 21.5234 3.59376C21.2251 3.43277 20.844 3.35228 20.38 3.35228H18.9879L17.0845 14.7443H13.1357ZM41.5163 7.72728C41.2512 9.30872 40.7256 10.6345 39.9396 11.7046C39.1536 12.7746 38.1996 13.5819 37.0774 14.1264C35.9553 14.6709 34.755 14.9432 33.4766 14.9432C32.1129 14.9432 30.9292 14.6473 29.9254 14.0554C28.9216 13.4635 28.1901 12.5971 27.7308 11.456C27.2715 10.3149 27.1792 8.92046 27.4538 7.27273C27.7095 5.69129 28.2304 4.3608 29.0163 3.28126C29.8023 2.20171 30.7611 1.38495 31.8928 0.830971C33.0244 0.276994 34.2341 5.00679e-06 35.522 5.00679e-06C36.8762 5.00679e-06 38.0528 0.2983 39.0518 0.894891C40.0556 1.49148 40.7848 2.36506 41.2393 3.51563C41.6986 4.6662 41.791 6.07008 41.5163 7.72728ZM37.5391 7.27273C37.6716 6.4394 37.6811 5.73864 37.5675 5.17046C37.4538 4.59754 37.2147 4.16667 36.8501 3.87785C36.4856 3.58429 35.9955 3.43751 35.38 3.43751C34.6792 3.43751 34.059 3.60796 33.5192 3.94887C32.9794 4.28978 32.532 4.77983 32.1768 5.41904C31.8217 6.05824 31.5732 6.82766 31.4311 7.72728C31.2796 8.57008 31.2654 9.27084 31.3885 9.82955C31.5163 10.3883 31.7673 10.8073 32.1413 11.0867C32.5201 11.366 33.0125 11.5057 33.6186 11.5057C34.3099 11.5057 34.9207 11.34 35.451 11.0085C35.986 10.6771 36.4287 10.1965 36.7791 9.56677C37.1342 8.93703 37.3876 8.17235 37.5391 7.27273ZM42.1786 14.7443L44.5934 0.198869H50.8718C51.9514 0.198869 52.8628 0.395365 53.6062 0.788357C54.3496 1.18135 54.8846 1.74716 55.2113 2.4858C55.538 3.22444 55.6161 4.10985 55.4457 5.14205C55.2752 6.18372 54.8988 7.06203 54.3164 7.77699C53.7388 8.48722 53.0025 9.02699 52.1076 9.39631C51.2175 9.7609 50.2184 9.94319 49.1104 9.94319H45.3604L45.8718 6.87501H48.8264C49.2904 6.87501 49.6976 6.81819 50.0479 6.70455C50.3983 6.58618 50.6824 6.40152 50.9002 6.15057C51.118 5.89489 51.2601 5.55872 51.3264 5.14205C51.3926 4.72538 51.3595 4.38684 51.2269 4.12643C51.0943 3.86127 50.8742 3.66715 50.5664 3.54404C50.2586 3.4162 49.8775 3.35228 49.4229 3.35228H48.0309L46.1275 14.7443H42.1786ZM51.8093 8.06819L54.3377 14.7443H50.0479L47.6048 8.06819H51.8093ZM57.2106 3.38069L57.7504 0.198869H70.3924L69.8526 3.38069H65.4776L63.6026 14.7443H59.7106L61.5856 3.38069H57.2106Z" fill="black"/>
<path d="M84.0359 7.72728C83.7707 9.30872 83.2451 10.6345 82.4592 11.7046C81.6732 12.7746 80.7191 13.5819 79.5969 14.1264C78.4748 14.6709 77.2745 14.9432 75.9961 14.9432C74.6325 14.9432 73.4487 14.6473 72.445 14.0554C71.4412 13.4635 70.7096 12.5971 70.2504 11.456C69.7911 10.3149 69.6987 8.92046 69.9734 7.27273C70.2291 5.69129 70.7499 4.3608 71.5359 3.28126C72.3219 2.20171 73.2807 1.38495 74.4123 0.830971C75.5439 0.276994 76.7537 5.00679e-06 78.0416 5.00679e-06C79.3957 5.00679e-06 80.5723 0.2983 81.5714 0.894891C82.5752 1.49148 83.3043 2.36506 83.7589 3.51563C84.2182 4.6662 84.3105 6.07008 84.0359 7.72728ZM80.0586 7.27273C80.1912 6.4394 80.2006 5.73864 80.087 5.17046C79.9734 4.59754 79.7343 4.16667 79.3697 3.87785C79.0051 3.58429 78.515 3.43751 77.8995 3.43751C77.1987 3.43751 76.5785 3.60796 76.0387 3.94887C75.4989 4.28978 75.0515 4.77983 74.6964 5.41904C74.3413 6.05824 74.0927 6.82766 73.9506 7.72728C73.7991 8.57008 73.7849 9.27084 73.908 9.82955C74.0359 10.3883 74.2868 10.8073 74.6609 11.0867C75.0397 11.366 75.5321 11.5057 76.1381 11.5057C76.8294 11.5057 77.4402 11.34 77.9705 11.0085C78.5056 10.6771 78.9483 10.1965 79.2987 9.56677C79.6538 8.93703 79.9071 8.17235 80.0586 7.27273ZM99.6982 0.198869L97.2834 14.7443H93.9879L90.0107 7.10228H89.9254L88.647 14.7443H84.6982L87.1129 0.198869H90.4652L94.3857 7.81251H94.4993L95.7493 0.198869H99.6982Z" fill="#FF5F3F"/>
</svg>
